<svg width="132" height="47" viewBox="0 0 132 47" fill="none" xmlns="http://www.w3.org/2000/svg">
<g id="Siaccra Logo SVG">
<g id="Word_Mark">
<path id="Vector" d="M11.7125 10.5148C10.5167 8.59026 8.58953 8.30843 6.73604 8.28558C4.81146 8.28558 1.75955 8.98889 1.75955 11.6193C1.75955 13.7089 4.0142 14.2015 6.78428 14.7169C9.95299 15.3263 13.2385 15.89 13.2385 19.4344C13.2156 23.144 9.48327 24.0352 6.73604 24.0352C4.1767 24.0352 1.26697 22.9789 0 20.4678L1.12733 19.9042C2.13786 21.8998 4.72005 22.885 6.73858 22.885C8.75711 22.885 11.9741 22.3213 11.9741 19.4116C11.9969 16.9462 9.27507 16.4079 6.57608 15.89C3.57241 15.3035 0.495111 14.6915 0.495111 11.665C0.421479 8.19164 4.03451 7.11255 6.73604 7.11255C9.08464 7.11255 11.126 7.48832 12.7459 9.90548L11.7125 10.5148Z" fill="#212121"/>
<path id="Vector_2" d="M15.9373 23.7779V7.34534H17.1814V23.7779H15.9373Z" fill="#212121"/>
<path id="Vector_3" d="M22.0641 7.34534V22.5795H31.3138V23.7779H20.7971V7.34534H22.0641Z" fill="#212121"/>
<path id="Vector_4" d="M33.731 23.7779V7.34534H34.9751V23.7779H33.731Z" fill="#212121"/>
<path id="Vector_5" d="M52.1594 21.5003C50.5166 23.1431 48.3331 23.9657 46.1723 23.9657C40.6322 23.9657 37.7453 20.0937 37.7225 15.6555C37.6768 11.2655 40.5382 7.15735 46.1723 7.15735C48.3331 7.15735 50.5141 7.97999 52.1594 9.62274L51.291 10.3743C49.8819 8.96514 48.0284 8.28468 46.1749 8.28468C41.3863 8.28468 38.9209 11.6641 38.9437 15.6098C38.992 19.4589 41.432 22.7927 46.1749 22.7927C48.0284 22.7927 49.9073 22.0894 51.3164 20.7031L52.1594 21.5003Z" fill="#212121"/>
<path id="Vector_6" d="M70.9861 15.5847C70.9633 19.9036 68.2161 24.06 62.6988 24.06C57.1815 24.06 54.4114 19.8807 54.4114 15.539C54.4114 11.1262 57.1586 7.08911 62.6988 7.08911C68.2389 7.08911 71.009 11.149 70.9861 15.5847ZM55.658 15.5618C55.6809 19.2714 58.0295 22.8869 62.7013 22.8869C67.396 22.8869 69.7674 19.2714 69.7674 15.5618C69.7674 11.7584 67.4188 8.26214 62.7013 8.26214C57.9812 8.26214 55.6352 11.6873 55.658 15.5618Z" fill="#212121"/>
<path id="Vector_7" d="M74.5556 7.34534L85.6131 20.9367V7.34534H86.8572V23.7779H86.3646L75.2843 10.2094V23.7779H74.0173V7.34534H74.5556Z" fill="#212121"/>
<path id="Vector_8" d="M17.3848 29.7853C17.3848 35.4422 17.3848 41.0661 17.3848 46.7256H15.7039V43.1253C14.0586 45.7659 11.5196 46.9999 8.77747 46.9999C4.04472 46.9999 0.170166 43.4325 0.170166 38.2554C0.170166 33.0784 4.04472 29.5796 8.77747 29.5796C11.5196 29.5796 14.2973 30.8491 15.7039 33.4897V29.7853H17.3848ZM1.851 38.2554C1.851 42.5083 4.93592 45.3546 8.77747 45.3546C18.2074 45.3546 18.2074 31.1919 8.77747 31.1919C4.93592 31.1919 1.851 34.0051 1.851 38.2554Z" fill="#212121"/>
<path id="Vector_9" d="M36.2094 44.3595C34.4955 46.0733 32.2663 46.896 30.037 46.896C25.2712 46.896 21.3281 43.6054 21.3281 38.2557C21.3281 32.9059 25.1341 29.6154 30.037 29.6154C32.2663 29.6154 34.4955 30.4735 36.2094 32.1518L35.1125 33.2157C33.7414 31.8446 31.8549 31.1921 30.037 31.1921C26.1954 31.1921 22.9734 33.6956 22.9734 38.2557C22.9734 42.8158 26.198 45.3192 30.037 45.3192C31.8549 45.3192 33.7059 44.5982 35.077 43.2271L36.2094 44.3595Z" fill="#212121"/>
<path id="Vector_10" d="M53.5253 44.3595C51.8114 46.0733 49.5822 46.896 47.3529 46.896C42.5872 46.896 38.644 43.6054 38.644 38.2557C38.644 32.9059 42.45 29.6154 47.3529 29.6154C49.5822 29.6154 51.8114 30.4735 53.5253 32.1518L52.4284 33.2157C51.0574 31.8446 49.1709 31.1921 47.3529 31.1921C43.5114 31.1921 40.2893 33.6956 40.2893 38.2557C40.2893 42.8158 43.5139 45.3192 47.3529 45.3192C49.1709 45.3192 51.0218 44.5982 52.3929 43.2271L53.5253 44.3595Z" fill="#212121"/>
<path id="Vector_11" d="M58.532 29.7853L58.6005 32.8017C59.6644 30.5038 62.0637 29.6127 64.2245 29.6127C65.494 29.5796 66.7279 29.9224 67.8603 30.6079L67.1063 31.979C66.2151 31.4306 65.2198 31.1894 64.227 31.1894C61.071 31.2224 58.6386 33.7614 58.6386 36.8463V46.7232H56.9578V29.7828H58.532V29.7853Z" fill="#212121"/>
<path id="Vector_12" d="M86.6851 29.7853C86.6851 35.4422 86.6851 41.0661 86.6851 46.7256H85.0042V43.1253C83.3589 45.7659 80.8199 46.9999 78.0778 46.9999C73.345 46.9999 69.4705 43.4325 69.4705 38.2554C69.4705 33.0784 73.345 29.5796 78.0778 29.5796C80.8199 29.5796 83.5976 30.8491 85.0042 33.4897V29.7853H86.6851ZM71.1513 38.2554C71.1513 42.5083 74.2388 45.3546 78.0778 45.3546C87.5077 45.3546 87.5077 31.1919 78.0778 31.1919C74.2362 31.1919 71.1513 34.0051 71.1513 38.2554Z" fill="#212121"/>
</g>
<g id="Globe_Mark">
<path id="Vector_13" d="M114.015 30.6866C116.172 30.6866 117.92 28.9383 117.92 26.7816C117.92 24.6249 116.172 22.8766 114.015 22.8766C111.859 22.8766 110.11 24.6249 110.11 26.7816C110.11 28.9383 111.859 30.6866 114.015 30.6866Z" fill="#F79325"/>
<path id="Vector_14" d="M129.818 35.597C128.422 38.8673 126.07 41.6348 123.113 43.5442C122.239 42.6073 121.703 41.353 121.703 39.9692C121.703 37.0773 124.049 34.7338 126.939 34.7338C128.003 34.7338 128.993 35.0486 129.818 35.597Z" fill="#F79325"/>
<path id="Vector_15" d="M131.146 26.7817C130.712 27.0711 130.222 27.292 129.704 27.424C129.326 27.5205 128.932 27.5713 128.526 27.5713C128.442 27.5713 128.358 27.5688 128.272 27.5662C127.597 27.5281 126.959 27.3529 126.386 27.0635C124.923 26.3246 123.895 24.8545 123.788 23.1331V23.1305C123.781 23.0315 123.778 22.9274 123.778 22.8233C123.778 21.6427 124.21 20.5636 124.923 19.7308C125.647 18.8904 126.66 18.3039 127.81 18.1287C129.552 20.5001 130.717 23.3159 131.106 26.3805C131.116 26.5151 131.131 26.6471 131.146 26.7817Z" fill="#0673BA"/>
<path id="Vector_16" d="M102.212 27.8354C102.212 27.9624 102.207 28.0868 102.196 28.2112C102.151 28.8713 101.978 29.4934 101.701 30.0571C100.879 31.748 99.142 32.9135 97.1362 32.9135C96.829 32.9135 96.5294 32.8881 96.2399 32.8347C96.0343 31.9816 95.887 31.1031 95.8108 30.2094C95.7626 29.6864 95.7397 29.1608 95.7397 28.6276C95.7397 27.551 95.8337 26.4973 96.019 25.4741C96.1841 24.5474 96.4227 23.646 96.7274 22.7777C96.862 22.765 96.9991 22.7599 97.1362 22.7599C99.9393 22.7574 102.212 25.0323 102.212 27.8354Z" fill="#0E984E"/>
<path id="Vector_17" d="M121.401 36.2243C122.683 36.2243 123.722 35.1853 123.722 33.9037C123.722 32.622 122.683 31.583 121.401 31.583C120.12 31.583 119.081 32.622 119.081 33.9037C119.081 35.1853 120.12 36.2243 121.401 36.2243Z" fill="#0673BA"/>
<path id="Vector_18" d="M119.556 44.136C120.837 44.136 121.876 43.097 121.876 41.8153C121.876 40.5336 120.837 39.4946 119.556 39.4946C118.274 39.4946 117.235 40.5336 117.235 41.8153C117.235 43.097 118.274 44.136 119.556 44.136Z" fill="#0673BA"/>
<path id="Vector_19" d="M102.145 38.1235C103.165 38.1235 103.991 37.2971 103.991 36.2776C103.991 35.2582 103.165 34.4318 102.145 34.4318C101.126 34.4318 100.3 35.2582 100.3 36.2776C100.3 37.2971 101.126 38.1235 102.145 38.1235Z" fill="#EE3851"/>
<path id="Vector_20" d="M128.259 31.3317C128.879 31.3317 129.381 30.8292 129.381 30.2094C129.381 29.5896 128.879 29.0872 128.259 29.0872C127.639 29.0872 127.137 29.5896 127.137 30.2094C127.137 30.8292 127.639 31.3317 128.259 31.3317Z" fill="#EE3851"/>
<path id="Vector_21" d="M121.138 15.2266C121.749 15.2266 122.245 14.731 122.245 14.1196C122.245 13.5082 121.749 13.0126 121.138 13.0126C120.526 13.0126 120.031 13.5082 120.031 14.1196C120.031 14.731 120.526 15.2266 121.138 15.2266Z" fill="#EE3851"/>
<path id="Vector_22" d="M124.567 13.3677C125.172 13.3677 125.662 12.8778 125.662 12.2734C125.662 11.669 125.172 11.1791 124.567 11.1791C123.963 11.1791 123.473 11.669 123.473 12.2734C123.473 12.8778 123.963 13.3677 124.567 13.3677Z" fill="#0673BA"/>
<path id="Vector_23" d="M120.898 12.03C121.489 12.03 121.967 11.5514 121.967 10.961C121.967 10.3707 121.489 9.89209 120.898 9.89209C120.308 9.89209 119.829 10.3707 119.829 10.961C119.829 11.5514 120.308 12.03 120.898 12.03Z" fill="#F79325"/>
<path id="Vector_24" d="M114.833 14.6678C115.423 14.6678 115.902 14.1892 115.902 13.5988C115.902 13.0085 115.423 12.5299 114.833 12.5299C114.242 12.5299 113.764 13.0085 113.764 13.5988C113.764 14.1892 114.242 14.6678 114.833 14.6678Z" fill="#0673BA"/>
<path id="Vector_25" d="M117.733 19.6393C118.156 19.6393 118.499 19.296 118.499 18.8725C118.499 18.449 118.156 18.1057 117.733 18.1057C117.309 18.1057 116.966 18.449 116.966 18.8725C116.966 19.296 117.309 19.6393 117.733 19.6393Z" fill="#0673BA"/>
<path id="Vector_26" d="M124.326 28.4345C124.654 28.4345 124.92 28.1685 124.92 27.8403C124.92 27.5122 124.654 27.2462 124.326 27.2462C123.998 27.2462 123.732 27.5122 123.732 27.8403C123.732 28.1685 123.998 28.4345 124.326 28.4345Z" fill="#0673BA"/>
<path id="Vector_27" d="M118.524 8.91702C118.852 8.91702 119.118 8.65102 119.118 8.32289C119.118 7.99476 118.852 7.72876 118.524 7.72876C118.196 7.72876 117.93 7.99476 117.93 8.32289C117.93 8.65102 118.196 8.91702 118.524 8.91702Z" fill="#0E984E"/>
<path id="Vector_28" d="M112.459 10.4988C112.787 10.4988 113.053 10.2328 113.053 9.90468C113.053 9.57655 112.787 9.31055 112.459 9.31055C112.131 9.31055 111.865 9.57655 111.865 9.90468C111.865 10.2328 112.131 10.4988 112.459 10.4988Z" fill="#0673BA"/>
<path id="Vector_29" d="M115.358 10.8544C115.591 10.8544 115.78 10.6657 115.78 10.433C115.78 10.2002 115.591 10.0115 115.358 10.0115C115.125 10.0115 114.937 10.2002 114.937 10.433C114.937 10.6657 115.125 10.8544 115.358 10.8544Z" fill="#EE3851"/>
<path id="Vector_30" d="M118.525 11.3697C118.75 11.3697 118.933 11.1867 118.933 10.9609C118.933 10.7351 118.75 10.5521 118.525 10.5521C118.299 10.5521 118.116 10.7351 118.116 10.9609C118.116 11.1867 118.299 11.3697 118.525 11.3697Z" fill="#EE3851"/>
<path id="Vector_31" d="M115.359 8.73163C115.585 8.73163 115.768 8.54861 115.768 8.32284C115.768 8.09708 115.585 7.91406 115.359 7.91406C115.133 7.91406 114.95 8.09708 114.95 8.32284C114.95 8.54861 115.133 8.73163 115.359 8.73163Z" fill="#F79325"/>
<path id="Vector_32" d="M109.557 11.3697C109.783 11.3697 109.966 11.1867 109.966 10.9609C109.966 10.7351 109.783 10.5521 109.557 10.5521C109.331 10.5521 109.148 10.7351 109.148 10.9609C109.148 11.1867 109.331 11.3697 109.557 11.3697Z" fill="#EE3851"/>
<path id="Vector_33" d="M123.008 16.3818C123.234 16.3818 123.417 16.1988 123.417 15.973C123.417 15.7472 123.234 15.5642 123.008 15.5642C122.783 15.5642 122.6 15.7472 122.6 15.973C122.6 16.1988 122.783 16.3818 123.008 16.3818Z" fill="#F79325"/>
<path id="Vector_34" d="M126.175 15.3255C126.4 15.3255 126.583 15.1425 126.583 14.9167C126.583 14.691 126.4 14.5079 126.175 14.5079C125.949 14.5079 125.766 14.691 125.766 14.9167C125.766 15.1425 125.949 15.3255 126.175 15.3255Z" fill="#0E984E"/>
<path id="Vector_35" d="M122.744 0.817566C122.97 0.817566 123.153 0.634547 123.153 0.408783C123.153 0.183018 122.97 0 122.744 0C122.518 0 122.335 0.183018 122.335 0.408783C122.335 0.634547 122.518 0.817566 122.744 0.817566Z" fill="#EE3851"/>
<path id="Vector_36" d="M121.163 5.82953C121.389 5.82953 121.572 5.64651 121.572 5.42074C121.572 5.19498 121.389 5.01196 121.163 5.01196C120.937 5.01196 120.754 5.19498 120.754 5.42074C120.754 5.64651 120.937 5.82953 121.163 5.82953Z" fill="#F79325"/>
<path id="Vector_37" d="M121.427 7.67527C121.792 7.67527 122.087 7.37403 122.087 7.00243C122.087 6.63083 121.792 6.32959 121.427 6.32959C121.062 6.32959 120.767 6.63083 120.767 7.00243C120.767 7.37403 121.062 7.67527 121.427 7.67527Z" fill="#0E984E"/>
<path id="Vector_38" d="M112.459 12.5555C113.049 12.5555 113.528 12.0769 113.528 11.4865C113.528 10.8962 113.049 10.4176 112.459 10.4176C111.868 10.4176 111.39 10.8962 111.39 11.4865C111.39 12.0769 111.868 12.5555 112.459 12.5555Z" fill="#F79325"/>
<path id="Vector_39" d="M122.745 4.3798C123.335 4.3798 123.814 3.90123 123.814 3.31087C123.814 2.72052 123.335 2.24194 122.745 2.24194C122.154 2.24194 121.676 2.72052 121.676 3.31087C121.676 3.90123 122.154 4.3798 122.745 4.3798Z" fill="#0673BA"/>
<path id="Vector_40" d="M124.326 9.57477C125.017 9.57477 125.578 9.01435 125.578 8.32303C125.578 7.63171 125.017 7.07129 124.326 7.07129C123.635 7.07129 123.074 7.63171 123.074 8.32303C123.074 9.01435 123.635 9.57477 124.326 9.57477Z" fill="#F79325"/>
<path id="Vector_41" d="M99.0096 35.9373C98.9462 36.5746 98.5729 37.1078 98.0499 37.3998C97.4354 36.3181 96.9327 35.168 96.5493 33.9594C96.7931 33.8781 97.052 33.8477 97.3212 33.8756C98.3571 33.9772 99.1163 34.8988 99.0096 35.9373Z" fill="#0E984E"/>
<path id="Vector_42" d="M106.104 28.5896C107.102 28.5896 107.912 27.7802 107.912 26.7818C107.912 25.7834 107.102 24.974 106.104 24.974C105.106 24.974 104.296 25.7834 104.296 26.7818C104.296 27.7802 105.106 28.5896 106.104 28.5896Z" fill="#0673BA"/>
<path id="Vector_43" d="M106.894 30.7374C107.767 30.7374 108.475 30.0292 108.475 29.1555C108.475 28.2819 107.767 27.5737 106.894 27.5737C106.02 27.5737 105.312 28.2819 105.312 29.1555C105.312 30.0292 106.02 30.7374 106.894 30.7374Z" fill="#F79325"/>
<path id="Vector_44" d="M112.434 38.0703C113.715 38.0703 114.754 37.0313 114.754 35.7496C114.754 34.468 113.715 33.429 112.434 33.429C111.152 33.429 110.113 34.468 110.113 35.7496C110.113 37.0313 111.152 38.0703 112.434 38.0703Z" fill="#F79325"/>
<path id="Vector_45" d="M110.323 16.6914C111.598 16.6914 112.631 15.6581 112.631 14.3834C112.631 13.1088 111.598 12.0754 110.323 12.0754C109.049 12.0754 108.015 13.1088 108.015 14.3834C108.015 15.6581 109.049 16.6914 110.323 16.6914Z" fill="#0E984E"/>
<path id="Vector_46" d="M105.568 12.7382C105.477 13.9493 104.565 14.9319 103.39 15.135C103.245 15.1604 103.093 15.1756 102.938 15.1756C102.638 15.1756 102.346 15.1248 102.077 15.0309C102.514 14.6627 102.971 14.3124 103.443 13.9899C104.118 13.5227 104.829 13.1038 105.568 12.7382Z" fill="#F79325"/>
<path id="Vector_47" d="M103.466 14.3836C103.466 14.6426 103.441 14.894 103.39 15.1352C103.042 16.8135 101.554 18.0754 99.7742 18.0754C99.5914 18.0754 99.4162 18.0627 99.241 18.0348C100.066 16.9252 101.021 15.9172 102.08 15.0285C102.516 14.6604 102.973 14.31 103.446 13.9875C103.458 14.117 103.466 14.2491 103.466 14.3836Z" fill="#EE3851"/>
<path id="Vector_48" d="M116.653 43.3971C116.653 44.3467 116.318 45.2176 115.762 45.898C115.653 46.0301 115.539 46.157 115.412 46.2738H115.409C114.78 46.3449 114.137 46.3804 113.49 46.3804C113.022 46.3804 112.563 46.3627 112.108 46.3246H112.106C111.552 46.284 111.004 46.2154 110.466 46.1215C110.207 46.0783 109.95 46.0301 109.699 45.9717H109.696C109.638 45.9031 109.58 45.832 109.524 45.7584C109.034 45.1008 108.742 44.2832 108.742 43.3996C108.742 42.516 109.031 41.6985 109.524 41.0409C109.559 40.9952 109.592 40.952 109.628 40.9088C110.354 40.0151 111.461 39.4413 112.7 39.4413C114.881 39.4413 116.653 41.2135 116.653 43.3971Z" fill="#EE3851"/>
<path id="Vector_49" d="M115.897 46.2154C115.737 46.2382 115.574 46.2585 115.412 46.2738H115.409C114.78 46.3449 114.137 46.3804 113.49 46.3804C113.023 46.3804 112.563 46.3626 112.109 46.3245C112.327 45.474 113.101 44.8494 114.018 44.8494C114.775 44.8494 115.432 45.2734 115.765 45.898C115.816 45.9995 115.861 46.1036 115.897 46.2154Z" fill="#F79325"/>
<path id="Vector_50" d="M131.24 28.6274C131.24 29.3866 131.192 30.1356 131.1 30.8719C130.103 30.613 129.366 29.7065 129.366 28.6274C129.366 28.1882 129.488 27.7743 129.701 27.4239C130.011 26.9136 130.509 26.5353 131.1 26.3829C131.116 26.515 131.131 26.647 131.146 26.7816C131.21 27.3884 131.24 28.0054 131.24 28.6274Z" fill="#0E984E"/>
<path id="Vector_51" d="M124.568 23.3133C125.566 23.3133 126.375 22.504 126.375 21.5055C126.375 20.5071 125.566 19.6978 124.568 19.6978C123.569 19.6978 122.76 20.5071 122.76 21.5055C122.76 22.504 123.569 23.3133 124.568 23.3133Z" fill="#F79325"/>
<path id="Vector_52" d="M127.467 27.9038C128.087 27.9038 128.589 27.4014 128.589 26.7816C128.589 26.1617 128.087 25.6593 127.467 25.6593C126.847 25.6593 126.345 26.1617 126.345 26.7816C126.345 27.4014 126.847 27.9038 127.467 27.9038Z" fill="#F79325"/>
<path id="Vector_53" d="M127.228 19.5454C127.454 19.5454 127.637 19.3623 127.637 19.1366C127.637 18.9108 127.454 18.7278 127.228 18.7278C127.003 18.7278 126.82 18.9108 126.82 19.1366C126.82 19.3623 127.003 19.5454 127.228 19.5454Z" fill="#EE3851"/>
<path id="Vector_54" d="M114.543 38.5578C115.512 38.5578 116.298 37.7723 116.298 36.8033C116.298 35.8343 115.512 35.0488 114.543 35.0488C113.574 35.0488 112.789 35.8343 112.789 36.8033C112.789 37.7723 113.574 38.5578 114.543 38.5578Z" fill="#0673BA"/>
<path id="Vector_55" d="M98.1895 27.8353C98.1895 29.1454 97.1257 30.2093 95.8155 30.2093H95.8079C95.7597 29.6862 95.7368 29.1607 95.7368 28.6275C95.7368 27.5509 95.8308 26.4972 96.0161 25.474C97.2348 25.573 98.1895 26.5937 98.1895 27.8353Z" fill="#0673BA"/>
<path id="Vector_56" d="M103.991 32.0018C105.273 32.0018 106.312 30.9628 106.312 29.6811C106.312 28.3995 105.273 27.3605 103.991 27.3605C102.709 27.3605 101.67 28.3995 101.67 29.6811C101.67 30.9628 102.709 32.0018 103.991 32.0018Z" fill="#EE3851"/>
<path id="Vector_57" d="M109.795 45.7709C111.106 45.7709 112.169 44.7081 112.169 43.3969C112.169 42.0858 111.106 41.0229 109.795 41.0229C108.484 41.0229 107.421 42.0858 107.421 43.3969C107.421 44.7081 108.484 45.7709 109.795 45.7709Z" fill="#0673BA"/>
<path id="Vector_58" d="M110.852 44.1893C110.852 44.6819 110.781 45.1617 110.644 45.6137C110.595 45.7889 110.534 45.9565 110.463 46.1189C110.204 46.0758 109.948 46.0275 109.696 45.9691H109.694C106.571 45.2912 103.76 43.7932 101.488 41.7061C102.349 40.1954 103.976 39.1772 105.84 39.1772C107.35 39.1772 108.706 39.8476 109.625 40.9089C109.661 40.9495 109.694 40.9876 109.724 41.0282C110.428 41.8864 110.852 42.9934 110.852 44.1893Z" fill="#0E984E"/>
</g>
</g>
</svg>
